<svg viewBox="0 0 200 200" fill="none" xmlns="http://www.w3.org/2000/svg">
  <path d="M98.5 160L100 190L101.5 160Z" fill="black" fill-opacity="0.2" />
  <path d="M100 20C95 20 90 25 90 40V140C90 155 95 160 100 160C105 160 110 155 110 140V40C110 25 105 20 100 20Z" fill="#0d9488" />
  
  <path d="M100 60L20 100V120L100 90L180 120V100L100 60Z" fill="#0f766e" />
  <path d="M100 140L70 160V170L100 155L130 170V160L100 140Z" fill="#0f766e" />
  <path d="M96 35H104V40H96V35Z" fill="#38bdf8" />
  
  <!-- Red Neon Circles (Static) -->
  <circle cx="35" cy="112" r="2" fill="#ef4444" />
  <circle cx="55" cy="107" r="2" fill="#ef4444" />
  <circle cx="75" cy="102" r="2" fill="#ef4444" />

  <circle cx="165" cy="112" r="2" fill="#ef4444" />
  <circle cx="145" cy="107" r="2" fill="#ef4444" />
  <circle cx="125" cy="102" r="2" fill="#ef4444" />

  <circle cx="100" cy="170" r="3" fill="white" />
</svg>
