<svg width="32" height="32" viewBox="0 0 24 24" fill="none" xmlns="http://www.w3.org/2000/svg">
  <path d="M17.8 19.2L16 11L19.5 8.5C20.3 7.9 20.3 6.7 19.5 6.1L18.5 5.4C17.7 4.8 16.5 4.8 15.7 5.4L13.2 8.9L5 7.1C4.1 6.9 3.2 7.5 3.1 8.4C3 9.3 3.6 10.2 4.5 10.4L11.7 12L7.2 16.5C6.9 16.8 6.8 17.2 6.9 17.6L7.4 20.1C7.5 20.6 8.1 20.8 8.6 20.6L11.1 19.5C11.5 19.3 12 19.3 12.3 19.6L14.8 21.1C15.3 21.4 15.9 21.2 16 20.7L16.5 18.2C16.6 17.8 16.8 17.5 17.1 17.2L17.8 19.2Z" fill="#0d9488"/>
  <circle cx="12" cy="12" r="10" stroke="#0d9488" stroke-width="1.5" stroke-dasharray="4 2"/>
</svg>
